<svg width="170" height="40" viewBox="0 0 170 40" fill="none" xmlns="http://www.w3.org/2000/svg">
<g clip-path="url(#clip0_0_3)">
<path d="M111.478 25.8792C109.576 29.4258 106.626 31.1507 102.662 31.1194C100.028 31.0882 97.7791 30.1601 95.8744 28.3384C93.9698 26.5167 93.0206 24.2825 92.9895 21.6608C92.9585 19.0079 93.8767 16.7737 95.7814 14.8863C97.7171 13.0021 100 12.0116 102.665 11.9803C104.566 11.9491 106.344 12.4584 107.994 13.4802C109.548 14.4707 110.69 15.6863 111.357 17.1862L111.704 17.9861H108.978C107.613 15.655 105.553 14.4395 102.761 14.377C100.89 14.3458 99.2402 15.0145 97.7512 16.4206C96.1971 17.858 95.4371 19.5828 95.4371 21.5639C95.4371 23.545 96.166 25.2387 97.593 26.676C99.0199 28.0822 100.732 28.7853 102.699 28.7509C105.522 28.7196 107.616 27.5697 109.012 25.3324H111.738L111.484 25.8761L111.478 25.8792Z" fill="white"/>
<path d="M116.094 12.4928H113.714V30.7039H116.094V12.4928Z" fill="white"/>
<path d="M120.421 37.094H118.073V21.5983C118.073 18.9798 119.025 16.7112 120.896 14.8238C122.8 12.9084 125.049 11.9803 127.652 12.0772C130.158 12.1428 132.283 13.099 134.027 14.952C135.77 16.8049 136.66 19.0079 136.66 21.5639C136.66 24.12 135.708 26.5167 133.837 28.4322C131.967 30.3164 129.715 31.2444 127.115 31.1476C124.451 31.0507 122.233 29.9664 120.424 27.9197V37.0877L120.421 37.094ZM127.621 14.4739C125.623 14.377 123.942 15.0488 122.515 16.5518C121.119 18.0517 120.455 19.7797 120.486 21.792C120.517 23.7106 121.215 25.3386 122.515 26.7135C123.815 28.0884 125.4 28.7571 127.273 28.7571C129.147 28.7571 130.794 28.0853 132.159 26.7135C133.524 25.3386 134.222 23.7106 134.253 21.7608C134.284 19.8453 133.651 18.183 132.348 16.7456C131.049 15.3082 129.495 14.5426 127.624 14.477" fill="white"/>
<path d="M67.5806 6.09952H69.9288V21.5952C69.9288 24.2137 68.9765 26.4823 67.106 28.3665C65.2044 30.2851 62.9523 31.2101 60.3497 31.1132C57.8432 31.0476 55.7183 30.0914 53.975 28.2384C52.2316 26.3854 51.3413 24.1825 51.3413 21.6264C51.3413 19.0704 52.2936 16.6737 54.1642 14.7582C56.0347 12.874 58.2868 11.9459 60.8863 12.0428C63.551 12.1397 65.7721 13.224 67.5775 15.2676V6.09952H67.5806ZM60.3807 28.7196C62.3784 28.8165 64.0597 28.1447 65.4867 26.6417C66.8826 25.1387 67.5465 23.4138 67.5154 21.4015C67.4844 19.4829 66.7865 17.8549 65.4867 16.48C64.1869 15.1051 62.6018 14.4364 60.7281 14.4364C58.8545 14.4364 57.2073 15.1082 55.8424 16.48C54.4775 17.8549 53.7795 19.4829 53.7485 21.4327C53.7175 23.3482 54.3503 25.0105 55.6501 26.4479C56.9498 27.8853 58.504 28.6509 60.3745 28.7165" fill="white"/>
<path d="M154.928 30.7039H152.518V20.0984C152.518 18.5642 151.947 17.2549 150.836 16.1362C149.726 15.0176 148.395 14.4739 146.903 14.5082C145.38 14.5395 144.08 15.0519 143.035 16.0737C141.989 17.0643 141.481 18.3423 141.481 19.9078V30.707H138.974V6.0714H141.415V15.0801C142.78 13.2583 144.555 12.299 146.711 12.2053C148.963 12.1084 150.864 12.8427 152.484 14.4426C154.1 16.0394 154.925 18.0205 154.925 20.3515V30.7039H154.928Z" fill="white"/>
<path d="M159.165 12.4928H156.786V30.7039H159.165V12.4928Z" fill="white"/>
<path d="M80.0106 23.7544L90.0085 17.5986L89.3571 16.4643C88.231 14.4989 86.4753 13.1615 84.0867 12.4459C81.6299 11.7366 79.325 11.9334 77.1567 13.0084C74.7433 14.227 73.1985 16.1956 72.4509 18.9173C71.7157 21.5952 72.0662 24.1231 73.4684 26.4417C74.7805 28.6665 76.7255 30.082 79.3095 30.7538C81.878 31.4007 84.217 31.0726 86.3419 29.7977C88.0294 28.779 89.2826 27.3885 90.1109 25.5761C90.9391 23.7669 91.1532 21.8358 90.7623 19.811L88.5381 21.1046C88.7677 23.995 87.6758 26.1792 85.2189 27.6447C83.6431 28.5978 81.968 28.8727 80.1998 28.5353C78.8194 28.2728 77.653 27.6322 76.6976 26.6604H76.6914C76.6914 26.6604 76.6542 26.6198 76.5673 26.5198C76.3502 26.2854 76.1392 26.0417 75.9438 25.7699C75.3668 25.0605 74.9201 24.0356 74.8333 23.8325C74.7867 23.7231 74.7185 23.47 74.6657 23.2576C74.6564 23.2201 74.6471 23.1857 74.6378 23.1482C74.6068 23.0263 74.5882 22.9357 74.5882 22.9357H74.5944C74.3028 21.5796 74.3773 20.2609 74.8736 18.9766C75.4754 17.408 76.5239 16.1706 78.0501 15.3207C79.5763 14.4707 81.1366 14.1895 82.7311 14.4801C84.3256 14.7707 85.6936 15.5613 86.8351 16.8518L78.8163 21.8483" fill="white"/>
<path d="M116.928 8.43684C116.928 9.56488 116.022 10.4773 114.902 10.4773C113.782 10.4773 112.876 9.56488 112.876 8.43684C112.876 7.3088 113.782 6.39638 114.902 6.39638C116.022 6.39638 116.928 7.3088 116.928 8.43684Z" fill="white"/>
<path d="M160 8.43684C160 9.56488 159.094 10.4773 157.974 10.4773C156.855 10.4773 155.949 9.56488 155.949 8.43684C155.949 7.3088 156.855 6.39638 157.974 6.39638C159.094 6.39638 160 7.3088 160 8.43684Z" fill="white"/>
<path d="M25.3211 2.00609L29.6608 9.5805L25.3211 17.1549H16.6384L12.2986 9.5805L16.6415 2.00609H25.3242H25.3211ZM26.4719 0H15.4906L10 9.5805L15.4906 19.161H26.4719L31.9626 9.5805L26.4719 0Z" fill="white"/>
<path d="M25.3211 22.8482L29.6608 30.4226L25.3211 37.997H16.6384L12.2986 30.4226L16.6384 22.8482H25.3211ZM26.4719 20.8421H15.4906L10 30.4226L15.4906 40.0031H26.4719L31.9626 30.4226L26.4719 20.8421Z" fill="white"/>
<path d="M39.1006 12.3303L43.4403 19.9047L39.1006 27.4791H30.2721L25.9944 20.0047L30.3838 12.3334H39.0975L39.1006 12.3303ZM40.2514 10.3242H29.236L23.7144 19.9578L29.1305 29.4852H40.2514L45.7421 19.9047L40.2514 10.3242Z" fill="white"/>
</g>
<defs>
<clipPath id="clip0_0_3">
<rect width="150" height="40" fill="white" transform="translate(10)"/>
</clipPath>
</defs>
</svg>
